<?xml version="1.0" encoding="utf-8"?>
<!-- Generator: Adobe Illustrator 16.0.0, SVG Export Plug-In . SVG Version: 6.00 Build 0)  -->
<!DOCTYPE svg PUBLIC "-//W3C//DTD SVG 1.1//EN" "http://www.w3.org/Graphics/SVG/1.1/DTD/svg11.dtd">
<svg version="1.1" id="レイヤー_1" xmlns="http://www.w3.org/2000/svg" xmlns:xlink="http://www.w3.org/1999/xlink" x="0px"
	 y="0px" width="186.906px" height="187.405px" viewBox="626.855 710.985 186.906 187.405"
	 enable-background="new 626.855 710.985 186.906 187.405" xml:space="preserve">
<linearGradient id="SVGID_1_" gradientUnits="userSpaceOnUse" x1="-58.144" y1="-354.3125" x2="128.7617" y2="-354.3125" gradientTransform="matrix(1 0 0 1 685 1159)">
	<stop  offset="0" style="stop-color:#FFFFFF"/>
	<stop  offset="1" style="stop-color:#FFFFFF;stop-opacity:0.1"/>
</linearGradient>
<path fill="url(#SVGID_1_)" d="M813.706,802.134c-0.024-1.088-0.038-2.175-0.14-3.255c-0.081-1.082-0.161-2.162-0.241-3.241
	c-0.107-1.076-0.263-2.145-0.391-3.216l-0.2-1.603c-0.079-0.532-0.185-1.062-0.273-1.592c-0.188-1.058-0.373-2.113-0.561-3.169
	c-0.238-1.044-0.479-2.086-0.717-3.126c-0.121-0.519-0.229-1.042-0.363-1.557l-0.435-1.537c-0.295-1.021-0.562-2.048-0.878-3.059
	c-0.338-1.005-0.676-2.007-1.012-3.007c-5.594-15.938-15.335-29.707-27.062-39.795c-2.895-2.571-5.979-4.835-9.062-6.981
	c-3.148-2.058-6.306-4.011-9.564-5.637c-6.479-3.327-13.11-5.833-19.671-7.479c-6.557-1.658-13.007-2.538-19.181-2.804
	c-6.132-0.275-12.015,0.082-17.448,0.851c-10.912,1.521-20.028,4.858-27.156,8.214c-7.118,3.446-12.261,6.961-15.661,9.494
	c-0.218,0.165-0.429,0.323-0.633,0.479c-0.813-0.731-1.891-1.182-3.071-1.182c-2.546,0-4.607,2.064-4.607,4.609
	s2.062,4.609,4.607,4.609s4.607-2.064,4.607-4.609c0-0.652-0.137-1.272-0.382-1.834c0.222-0.167,0.434-0.325,0.671-0.507
	c3.295-2.473,8.338-5.946,15.293-9.341c6.972-3.312,15.895-6.616,26.589-8.145c5.342-0.771,11.072-1.145,17.146-0.893
	c6.026,0.238,12.37,1.08,18.812,2.686c6.446,1.593,12.968,4.032,19.352,7.28c3.211,1.587,6.316,3.498,9.422,5.508
	c3.039,2.104,6.082,4.316,8.938,6.838c11.571,9.885,21.213,23.405,26.778,39.092c5.642,15.637,6.855,33.476,3.189,50.543
	l-0.73,3.197l-0.888,3.164c-0.276,1.062-0.628,2.104-0.983,3.141c-0.365,1.036-0.67,2.097-1.083,3.115
	c-1.522,4.13-3.409,8.131-5.49,12.033c-2.128,3.881-4.56,7.596-7.188,11.169c-2.674,3.544-5.612,6.886-8.732,10.049
	c-12.568,12.577-28.842,21.402-45.994,24.986c-17.146,3.627-34.983,2.302-50.688-3.36c-15.72-5.661-29.294-15.363-39.196-27.04
	c-5.021-5.786-9.096-12.093-12.366-18.513c-0.858-1.585-1.543-3.239-2.29-4.845c-0.727-1.616-1.318-3.271-1.978-4.881
	c-0.559-1.647-1.144-3.271-1.646-4.9c-0.445-1.646-0.98-3.253-1.345-4.886c-3.204-13.007-3.302-25.52-1.698-36.252
	c0.811-5.377,1.995-10.35,3.471-14.819c1.463-4.476,3.144-8.47,4.821-11.997c3.467-7.011,6.974-12.091,9.495-15.425
	c1.246-1.684,2.284-2.908,2.981-3.736c0.69-0.831,1.05-1.26,1.05-1.26s-0.359,0.428-1.055,1.256
	c-0.699,0.826-1.742,2.047-2.994,3.729c-2.534,3.325-6.062,8.396-9.555,15.399c-1.692,3.524-3.39,7.519-4.869,11.994
	c-1.492,4.475-2.697,9.447-3.527,14.833c-1.644,10.757-1.59,23.286,1.579,36.354c0.358,1.64,0.889,3.254,1.332,4.906
	c0.499,1.639,1.08,3.27,1.634,4.925c0.654,1.616,1.244,3.28,1.968,4.904c0.744,1.615,1.424,3.278,2.283,4.873
	c3.261,6.457,7.33,12.808,12.357,18.642c9.909,11.767,23.523,21.577,39.333,27.333c15.799,5.756,33.768,7.156,51.067,3.559
	c17.315-3.556,33.779-12.406,46.526-25.073c3.165-3.186,6.146-6.554,8.863-10.128c2.675-3.604,5.146-7.353,7.312-11.271
	c2.12-3.94,4.042-7.983,5.601-12.159c0.422-1.032,0.734-2.103,1.106-3.149c0.364-1.051,0.722-2.103,1.008-3.177l0.908-3.202
	l0.753-3.234c0.93-4.328,1.627-8.683,1.914-13.076c0.22-2.2,0.217-4.365,0.287-6.533
	C813.78,804.298,813.722,803.229,813.706,802.134z"/>
<linearGradient id="SVGID_2_" gradientUnits="userSpaceOnUse" x1="9.2495" y1="-404.4834" x2="43.154" y2="-370.5789" gradientTransform="matrix(1 0 0 1 685 1159)">
	<stop  offset="0" style="stop-color:#FFFFFF"/>
	<stop  offset="1" style="stop-color:#FFFFFF;stop-opacity:0.5"/>
</linearGradient>
<path fill="url(#SVGID_2_)" d="M696.006,761.268c0,1.131,0.171,2.125,0.514,2.989s0.795,1.589,1.359,2.174
	c0.564,0.586,1.214,1.031,1.949,1.334c0.734,0.305,1.501,0.456,2.297,0.456c0.605,0,1.174-0.104,1.699-0.312
	c0.524-0.209,1.018-0.494,1.476-0.854c0.457-0.357,0.888-0.772,1.289-1.245c0.402-0.47,0.787-0.966,1.155-1.486l1.783,1.309
	c-0.387,0.616-0.852,1.21-1.395,1.783s-1.15,1.078-1.828,1.514c-0.676,0.438-1.41,0.785-2.206,1.045
	c-0.796,0.263-1.638,0.393-2.525,0.393c-1.497,0-2.876-0.219-4.138-0.654c-1.264-0.436-2.352-1.052-3.267-1.847
	s-1.629-1.751-2.143-2.867c-0.515-1.116-0.771-2.358-0.771-3.728c0-1.324,0.244-2.545,0.731-3.655
	c0.485-1.111,1.174-2.072,2.059-2.88c0.886-0.81,1.945-1.439,3.182-1.894c1.237-0.453,2.604-0.68,4.101-0.68
	c1.001,0,1.916,0.118,2.746,0.353c0.829,0.235,1.584,0.562,2.264,0.977s1.287,0.911,1.822,1.486
	c0.534,0.578,1.007,1.213,1.417,1.905l-1.796,1.257c-0.368-0.521-0.77-1.014-1.199-1.476c-0.435-0.462-0.894-0.866-1.379-1.212
	c-0.488-0.347-1.001-0.62-1.54-0.821s-1.1-0.301-1.682-0.301c-0.795,0-1.556,0.148-2.276,0.449c-0.724,0.3-1.357,0.741-1.904,1.328
	c-0.548,0.586-0.983,1.311-1.309,2.175C696.168,759.143,696.006,760.139,696.006,761.268z"/>
<linearGradient id="SVGID_3_" gradientUnits="userSpaceOnUse" x1="16.6177" y1="-411.8472" x2="50.5219" y2="-377.943" gradientTransform="matrix(1 0 0 1 685 1159)">
	<stop  offset="0" style="stop-color:#FFFFFF"/>
	<stop  offset="1" style="stop-color:#FFFFFF;stop-opacity:0.5"/>
</linearGradient>
<path fill="url(#SVGID_3_)" d="M720.729,752.224l8.159,17.755h-4.36l-2.183-4.745h-6.761l-2.283,4.745h-2.897l8.479-17.755H720.729z
	 M716.393,763.615h5.234l-2.579-5.619L716.393,763.615z"/>
<linearGradient id="SVGID_4_" gradientUnits="userSpaceOnUse" x1="26.874" y1="-422.1006" x2="60.7771" y2="-388.1975" gradientTransform="matrix(1 0 0 1 685 1159)">
	<stop  offset="0" style="stop-color:#FFFFFF"/>
	<stop  offset="1" style="stop-color:#FFFFFF;stop-opacity:0.5"/>
</linearGradient>
<path fill="url(#SVGID_4_)" d="M731.092,752.583h6.543c1.129,0,2.114,0.118,2.957,0.353c0.842,0.235,1.544,0.564,2.104,0.988
	c0.561,0.423,0.979,0.926,1.264,1.507s0.424,1.214,0.424,1.898c0,0.497-0.097,0.964-0.289,1.405
	c-0.19,0.439-0.462,0.847-0.808,1.219c-0.348,0.372-0.766,0.702-1.258,0.988c-0.491,0.287-1.032,0.522-1.623,0.712l6.195,8.325
	h-4.645l-5.837-7.863h-0.757v7.863h-4.272L731.092,752.583L731.092,752.583z M735.364,760.588h0.924
	c0.521,0,1.005-0.073,1.449-0.218c0.442-0.146,0.829-0.354,1.152-0.622c0.325-0.271,0.58-0.602,0.766-0.994
	c0.184-0.393,0.273-0.838,0.273-1.334c0-0.461-0.068-0.885-0.211-1.27c-0.142-0.387-0.336-0.718-0.584-0.994
	c-0.248-0.278-0.548-0.494-0.896-0.648c-0.353-0.154-0.73-0.229-1.144-0.229h-1.729V760.588z"/>
<linearGradient id="SVGID_5_" gradientUnits="userSpaceOnUse" x1="-17.9268" y1="-373.0859" x2="43.2689" y2="-311.8902" gradientTransform="matrix(1 0 0 1 685 1159)">
	<stop  offset="0" style="stop-color:#FFFFFF"/>
	<stop  offset="1" style="stop-color:#FFFFFF;stop-opacity:0.5"/>
</linearGradient>
<path fill="url(#SVGID_5_)" d="M673.235,801.037c-1.043,0-1.956-0.122-2.739-0.365c-0.782-0.244-1.447-0.58-1.994-1.007
	c-0.548-0.427-0.984-0.938-1.309-1.533c-0.325-0.595-0.55-1.247-0.667-1.957h2.963c0.103,0.438,0.252,0.842,0.447,1.219
	c0.196,0.376,0.447,0.704,0.75,0.981c0.306,0.278,0.663,0.496,1.078,0.654s0.896,0.235,1.443,0.235c0.359,0,0.716-0.039,1.071-0.114
	c0.354-0.077,0.673-0.203,0.955-0.379c0.28-0.176,0.509-0.401,0.681-0.681c0.171-0.276,0.256-0.623,0.256-1.033
	c0-0.513-0.132-0.971-0.396-1.373c-0.267-0.4-0.615-0.767-1.054-1.097c-0.437-0.329-0.933-0.635-1.486-0.917
	c-0.557-0.282-1.125-0.565-1.706-0.854c-0.582-0.286-1.15-0.589-1.706-0.904c-0.559-0.316-1.052-0.669-1.488-1.058
	c-0.436-0.391-0.787-0.83-1.052-1.322c-0.268-0.492-0.398-1.055-0.398-1.688c0-0.69,0.152-1.332,0.456-1.917
	s0.741-1.095,1.314-1.525c0.573-0.434,1.272-0.771,2.104-1.016c0.829-0.244,1.774-0.363,2.835-0.363
	c0.872,0,1.663,0.119,2.373,0.357c0.71,0.24,1.336,0.571,1.88,0.995c0.543,0.423,0.998,0.919,1.366,1.488
	c0.367,0.567,0.649,1.178,0.849,1.828h-2.684c-0.153-0.411-0.333-0.806-0.538-1.182c-0.206-0.376-0.458-0.706-0.758-0.987
	c-0.299-0.281-0.662-0.507-1.09-0.673c-0.428-0.167-0.938-0.25-1.526-0.25c-0.557,0-1.022,0.072-1.405,0.219
	c-0.381,0.145-0.687,0.332-0.916,0.558c-0.23,0.229-0.396,0.479-0.5,0.757c-0.104,0.278-0.153,0.551-0.153,0.814
	c0,0.462,0.137,0.881,0.41,1.257c0.271,0.376,0.636,0.728,1.084,1.052c0.447,0.325,0.96,0.636,1.531,0.932
	c0.573,0.295,1.156,0.592,1.751,0.892c0.597,0.3,1.181,0.614,1.751,0.943c0.573,0.33,1.084,0.689,1.533,1.084
	c0.449,0.393,0.812,0.83,1.084,1.308c0.273,0.479,0.411,1.019,0.411,1.617c0,0.71-0.146,1.368-0.437,1.976
	c-0.291,0.608-0.725,1.137-1.298,1.584c-0.571,0.449-1.283,0.803-2.136,1.06C675.328,800.909,674.347,801.037,673.235,801.037z"/>
<linearGradient id="SVGID_6_" gradientUnits="userSpaceOnUse" x1="-9.9917" y1="-381.0171" x2="51.2096" y2="-319.8158" gradientTransform="matrix(1 0 0 1 685 1159)">
	<stop  offset="0" style="stop-color:#FFFFFF"/>
	<stop  offset="1" style="stop-color:#FFFFFF;stop-opacity:0.5"/>
</linearGradient>
<path fill="url(#SVGID_6_)" d="M695.605,783.385v1.488h-8.725v5.734h7.248v1.486h-7.248v6.902h8.725v1.783H682.61v-17.396
	L695.605,783.385L695.605,783.385z"/>
<linearGradient id="SVGID_7_" gradientUnits="userSpaceOnUse" x1="-2.6914" y1="-388.3169" x2="58.5047" y2="-327.1207" gradientTransform="matrix(1 0 0 1 685 1159)">
	<stop  offset="0" style="stop-color:#FFFFFF"/>
	<stop  offset="1" style="stop-color:#FFFFFF;stop-opacity:0.5"/>
</linearGradient>
<path fill="url(#SVGID_7_)" d="M698.546,783.385h6.543c1.129,0,2.114,0.118,2.957,0.354c0.842,0.233,1.544,0.562,2.104,0.986
	c0.56,0.425,0.979,0.928,1.264,1.509s0.424,1.214,0.424,1.896c0,0.497-0.097,0.964-0.289,1.405c-0.19,0.439-0.462,0.847-0.808,1.219
	c-0.347,0.372-0.768,0.702-1.258,0.988c-0.491,0.287-1.032,0.522-1.623,0.712l6.194,8.326h-4.644l-5.837-7.864h-0.757v7.864h-4.272
	L698.546,783.385L698.546,783.385z M702.818,791.39h0.924c0.521,0,1.005-0.071,1.449-0.218c0.442-0.145,0.828-0.353,1.152-0.622
	c0.325-0.269,0.58-0.601,0.766-0.994c0.184-0.393,0.273-0.838,0.273-1.334c0-0.461-0.068-0.885-0.211-1.27
	c-0.142-0.385-0.336-0.716-0.584-0.994s-0.548-0.494-0.896-0.648c-0.353-0.152-0.73-0.229-1.144-0.229h-1.729V791.39L702.818,791.39
	z"/>
<linearGradient id="SVGID_8_" gradientUnits="userSpaceOnUse" x1="8.4053" y1="-399.4165" x2="69.6036" y2="-338.2182" gradientTransform="matrix(1 0 0 1 685 1159)">
	<stop  offset="0" style="stop-color:#FFFFFF"/>
	<stop  offset="1" style="stop-color:#FFFFFF;stop-opacity:0.5"/>
</linearGradient>
<path fill="url(#SVGID_8_)" d="M717.123,783.385l5.747,12.021l5.337-12.021h2.732l-7.825,17.652h-1.988l-8.416-17.652H717.123z"/>
<linearGradient id="SVGID_9_" gradientUnits="userSpaceOnUse" x1="13.3325" y1="-404.335" x2="74.526" y2="-343.1415" gradientTransform="matrix(1 0 0 1 685 1159)">
	<stop  offset="0" style="stop-color:#FFFFFF"/>
	<stop  offset="1" style="stop-color:#FFFFFF;stop-opacity:0.5"/>
</linearGradient>
<path fill="url(#SVGID_9_)" d="M733.62,783.385h4.26v17.396h-4.26V783.385z"/>
<linearGradient id="SVGID_10_" gradientUnits="userSpaceOnUse" x1="20.6797" y1="-411.6836" x2="81.8769" y2="-350.4864" gradientTransform="matrix(1 0 0 1 685 1159)">
	<stop  offset="0" style="stop-color:#FFFFFF"/>
	<stop  offset="1" style="stop-color:#FFFFFF;stop-opacity:0.5"/>
</linearGradient>
<path fill="url(#SVGID_10_)" d="M745.438,792.07c0,1.129,0.173,2.125,0.515,2.987c0.342,0.864,0.796,1.591,1.358,2.176
	c0.564,0.586,1.216,1.029,1.949,1.334c0.735,0.303,1.501,0.456,2.297,0.456c0.606,0,1.174-0.105,1.699-0.314
	c0.526-0.209,1.018-0.494,1.477-0.854c0.457-0.357,0.889-0.772,1.289-1.243c0.401-0.472,0.786-0.968,1.154-1.488l1.783,1.309
	c-0.385,0.616-0.85,1.21-1.393,1.783s-1.152,1.078-1.828,1.514c-0.677,0.438-1.411,0.785-2.206,1.047
	c-0.796,0.261-1.639,0.391-2.527,0.391c-1.497,0-2.876-0.218-4.138-0.654c-1.262-0.436-2.351-1.052-3.267-1.847
	c-0.913-0.795-1.629-1.751-2.143-2.867c-0.513-1.116-0.771-2.356-0.771-3.727c0-1.325,0.243-2.544,0.73-3.656
	c0.487-1.111,1.174-2.072,2.059-2.88c0.888-0.81,1.945-1.439,3.184-1.894c1.236-0.452,2.603-0.68,4.099-0.68
	c1.001,0,1.916,0.118,2.746,0.354c0.829,0.233,1.584,0.56,2.264,0.975c0.682,0.415,1.287,0.911,1.822,1.488
	c0.534,0.576,1.007,1.212,1.417,1.903l-1.796,1.259c-0.368-0.521-0.769-1.016-1.199-1.478c-0.433-0.462-0.892-0.866-1.379-1.212
	c-0.488-0.346-1.001-0.62-1.54-0.821c-0.539-0.2-1.099-0.301-1.681-0.301c-0.795,0-1.556,0.149-2.277,0.449
	s-1.356,0.742-1.903,1.328c-0.548,0.586-0.983,1.311-1.31,2.175C745.6,789.945,745.438,790.941,745.438,792.07z"/>
<linearGradient id="SVGID_11_" gradientUnits="userSpaceOnUse" x1="29.5068" y1="-420.5234" x2="90.7109" y2="-359.3194" gradientTransform="matrix(1 0 0 1 685 1159)">
	<stop  offset="0" style="stop-color:#FFFFFF"/>
	<stop  offset="1" style="stop-color:#FFFFFF;stop-opacity:0.5"/>
</linearGradient>
<path fill="url(#SVGID_11_)" d="M774.61,783.385v1.488h-8.726v5.734h7.248v1.486h-7.248v6.902h8.726v1.783h-12.996v-17.396
	L774.61,783.385L774.61,783.385z"/>
<linearGradient id="SVGID_12_" gradientUnits="userSpaceOnUse" x1="-22.1699" y1="-330.2061" x2="42.8434" y2="-265.1927" gradientTransform="matrix(1 0 0 1 685 1159)">
	<stop  offset="0" style="stop-color:#FFFFFF"/>
	<stop  offset="1" style="stop-color:#FFFFFF;stop-opacity:0.5"/>
</linearGradient>
<path fill="url(#SVGID_12_)" d="M668.821,822.803h7.801v28.508h16.21v3.258h-24.011V822.803L668.821,822.803z"/>
<linearGradient id="SVGID_13_" gradientUnits="userSpaceOnUse" x1="-3.2417" y1="-349.1392" x2="61.7753" y2="-284.1222" gradientTransform="matrix(1 0 0 1 685 1159)">
	<stop  offset="0" style="stop-color:#FFFFFF"/>
	<stop  offset="1" style="stop-color:#FFFFFF;stop-opacity:0.5"/>
</linearGradient>
<path fill="url(#SVGID_13_)" d="M719.683,822.146l14.898,32.421h-7.965l-3.982-8.667h-12.345l-4.17,8.667h-5.294l15.482-32.421
	H719.683z M711.765,842.948h9.56l-4.709-10.261L711.765,842.948z"/>
<linearGradient id="SVGID_14_" gradientUnits="userSpaceOnUse" x1="20.8477" y1="-373.2256" x2="85.8608" y2="-308.2125" gradientTransform="matrix(1 0 0 1 685 1159)">
	<stop  offset="0" style="stop-color:#FFFFFF"/>
	<stop  offset="1" style="stop-color:#FFFFFF;stop-opacity:0.5"/>
</linearGradient>
<path fill="url(#SVGID_14_)" d="M749.607,838.662c0,2.062,0.312,3.881,0.937,5.458c0.625,1.578,1.452,2.901,2.483,3.971
	c1.028,1.07,2.217,1.882,3.561,2.438c1.343,0.555,2.74,0.832,4.193,0.832c1.106,0,2.143-0.191,3.104-0.574
	c0.96-0.382,1.858-0.902,2.694-1.56c0.835-0.654,1.619-1.414,2.354-2.271c0.734-0.858,1.438-1.765,2.108-2.717l3.256,2.389
	c-0.702,1.125-1.55,2.21-2.541,3.256c-0.992,1.046-2.104,1.968-3.338,2.765s-2.577,1.434-4.029,1.908
	c-1.453,0.478-2.991,0.714-4.615,0.714c-2.73,0-5.25-0.396-7.555-1.192c-2.304-0.797-4.291-1.921-5.962-3.374
	c-1.671-1.452-2.975-3.197-3.911-5.235c-0.938-2.038-1.406-4.306-1.406-6.805c0-2.42,0.445-4.646,1.336-6.676
	c0.892-2.03,2.145-3.783,3.762-5.261c1.615-1.476,3.552-2.627,5.809-3.455c2.257-0.826,4.752-1.24,7.484-1.24
	c1.827,0,3.498,0.215,5.014,0.644c1.516,0.43,2.895,1.023,4.135,1.78c1.241,0.758,2.352,1.663,3.326,2.717
	c0.978,1.054,1.839,2.214,2.588,3.479l-3.277,2.295c-0.672-0.952-1.401-1.853-2.19-2.694c-0.788-0.843-1.628-1.581-2.518-2.214
	c-0.893-0.632-1.827-1.132-2.812-1.499c-0.983-0.367-2.007-0.55-3.067-0.55c-1.451,0-2.84,0.271-4.157,0.818
	c-1.32,0.548-2.479,1.355-3.479,2.425c-1,1.07-1.796,2.395-2.39,3.972C749.903,834.781,749.607,836.6,749.607,838.662z"/>
</svg>
